<?xml version="1.0" encoding="UTF-8"?>
<svg id="Capa_1" xmlns="http://www.w3.org/2000/svg" version="1.1" viewBox="0 0 563.9 107.6">
  <!-- Generator: Adobe Illustrator 30.5.1, SVG Export Plug-In . SVG Version: 2.1.4 Build 3)  -->
  <path d="M563.9,69.1c0-10.2-4-19.8-11.2-27.1-7.2-7.2-16.8-11.2-27.1-11.2s-19.8,4-27.1,11.2c-7.2,7.2-11.2,16.8-11.2,27.1h0s0,0,0,0c0,10.2,4,19.8,11.2,27.1,7.2,7.2,16.8,11.2,27.1,11.2s19.8-4,27.1-11.2c1.1-1.1,2-2.2,3-3.3l-22.2-6.8c-2.4,1.1-5,1.7-7.8,1.7-6.7,0-12.6-3.6-15.9-8.9h0s54.2,0,54.2,0v-9.8ZM509.7,59.3c3.3-5.3,9.2-8.9,15.9-8.9s12.6,3.6,15.9,8.9h-31.8ZM123.5,30.8c-10.2,0-19.8,4-27.1,11.2-7.2,7.2-11.2,16.8-11.2,27.1s4,19.8,11.2,27.1c7.2,7.2,16.8,11.2,27.1,11.2s19.8-4,27.1-11.2c7.2-7.2,11.2-16.8,11.2-27.1s-4-19.8-11.2-27.1-16.8-11.2-27.1-11.2ZM123.5,87.8c-10.3,0-18.7-8.4-18.7-18.7s8.4-18.7,18.7-18.7,18.7,8.4,18.7,18.7-8.4,18.7-18.7,18.7ZM38.3,30.8c-6.7,0-13,1.7-18.7,4.9V0H0v69.1c0,10.2,4,19.8,11.2,27.1,7.2,7.2,16.8,11.2,27.1,11.2s19.8-4,27.1-11.2c7.2-7.2,11.2-16.8,11.2-27.1s-4-19.8-11.2-27.1c-7.2-7.2-16.8-11.2-27.1-11.2ZM38.3,87.8c-10.3,0-18.7-8.4-18.7-18.7s8.4-18.7,18.7-18.7,18.7,8.4,18.7,18.7-8.4,18.7-18.7,18.7ZM458.7,69.1c0,10.3-8.4,18.7-18.7,18.7s-18.7-8.4-18.7-18.7V29.6h-19.6v39.5c0,10.2,4,19.8,11.2,27.1,7.2,7.2,16.8,11.2,27.1,11.2s19.8-4,27.1-11.2c7.2-7.2,11.2-16.8,11.2-27.1V29.6h-19.6v39.5ZM327,30.8c-6.7,0-13,1.7-18.7,4.9V0h-19.6v69.1c0,10.2,4,19.8,11.2,27.1,7.2,7.2,16.8,11.2,27.1,11.2s19.8-4,27.1-11.2c7.2-7.2,11.2-16.8,11.2-27.1s-4-19.8-11.2-27.1c-7.2-7.2-16.8-11.2-27.1-11.2ZM327,87.8c-10.3,0-18.7-8.4-18.7-18.7s8.4-18.7,18.7-18.7,18.7,8.4,18.7,18.7-8.4,18.7-18.7,18.7ZM372.5,107.6h19.6V0h-19.6v107.6ZM254.7,35.6c-5.6-3.2-12-4.9-18.7-4.9-10.2,0-19.8,4-27.1,11.2s-11.2,16.8-11.2,27.1,4,19.8,11.2,27.1c7.2,7.2,16.8,11.2,27.1,11.2s19.8-4,27.1-11.2c7.2-7.2,11.2-16.8,11.2-27.1V0h-19.6v35.6ZM236,87.8c-10.3,0-18.7-8.4-18.7-18.7s8.4-18.7,18.7-18.7,18.7,8.4,18.7,18.7-8.4,18.7-18.7,18.7ZM170.6,107.6h19.6V0h-19.6v107.6Z"/>
</svg>